<mxfile host="app.diagrams.net" modified="2024-04-16T13:47:11.288Z" agent="Mozilla/5.0 (Windows NT 10.0; Win64; x64) AppleWebKit/537.36 (KHTML, like Gecko) Chrome/123.0.0.0 Safari/537.36" etag="rK5UPYmdsrnNphGrRPbP" version="24.2.5" type="device">
  <diagram name="Page-1" id="ASptpMLjJY1tWcrFLGC7">
    <mxGraphModel dx="989" dy="509" grid="1" gridSize="10" guides="1" tooltips="1" connect="1" arrows="1" fold="1" page="1" pageScale="1" pageWidth="827" pageHeight="1169" math="0" shadow="0">
      <root>
        <mxCell id="0" />
        <mxCell id="1" parent="0" />
        <mxCell id="HbkSaEsXiyKGqW21RSDz-21" style="edgeStyle=orthogonalEdgeStyle;rounded=0;orthogonalLoop=1;jettySize=auto;html=1;" edge="1" parent="1" source="HbkSaEsXiyKGqW21RSDz-1" target="HbkSaEsXiyKGqW21RSDz-15">
          <mxGeometry relative="1" as="geometry" />
        </mxCell>
        <mxCell id="HbkSaEsXiyKGqW21RSDz-1" value="index (main) page" style="rounded=0;whiteSpace=wrap;html=1;" vertex="1" parent="1">
          <mxGeometry x="280" y="130" width="120" height="60" as="geometry" />
        </mxCell>
        <mxCell id="HbkSaEsXiyKGqW21RSDz-20" style="edgeStyle=orthogonalEdgeStyle;rounded=0;orthogonalLoop=1;jettySize=auto;html=1;" edge="1" parent="1" source="HbkSaEsXiyKGqW21RSDz-2" target="HbkSaEsXiyKGqW21RSDz-15">
          <mxGeometry relative="1" as="geometry" />
        </mxCell>
        <mxCell id="HbkSaEsXiyKGqW21RSDz-2" value="sweatshirt shop page" style="rounded=0;whiteSpace=wrap;html=1;" vertex="1" parent="1">
          <mxGeometry x="140" y="280" width="120" height="60" as="geometry" />
        </mxCell>
        <mxCell id="HbkSaEsXiyKGqW21RSDz-16" style="edgeStyle=orthogonalEdgeStyle;rounded=0;orthogonalLoop=1;jettySize=auto;html=1;" edge="1" parent="1" source="HbkSaEsXiyKGqW21RSDz-3" target="HbkSaEsXiyKGqW21RSDz-15">
          <mxGeometry relative="1" as="geometry" />
        </mxCell>
        <mxCell id="HbkSaEsXiyKGqW21RSDz-3" value="material shop page" style="rounded=0;whiteSpace=wrap;html=1;" vertex="1" parent="1">
          <mxGeometry x="140" y="190" width="120" height="60" as="geometry" />
        </mxCell>
        <mxCell id="HbkSaEsXiyKGqW21RSDz-22" style="edgeStyle=orthogonalEdgeStyle;rounded=0;orthogonalLoop=1;jettySize=auto;html=1;" edge="1" parent="1" source="HbkSaEsXiyKGqW21RSDz-4" target="HbkSaEsXiyKGqW21RSDz-15">
          <mxGeometry relative="1" as="geometry" />
        </mxCell>
        <mxCell id="HbkSaEsXiyKGqW21RSDz-4" value="help page" style="rounded=0;whiteSpace=wrap;html=1;" vertex="1" parent="1">
          <mxGeometry x="414" y="190" width="120" height="60" as="geometry" />
        </mxCell>
        <mxCell id="HbkSaEsXiyKGqW21RSDz-23" style="edgeStyle=orthogonalEdgeStyle;rounded=0;orthogonalLoop=1;jettySize=auto;html=1;" edge="1" parent="1" source="HbkSaEsXiyKGqW21RSDz-5" target="HbkSaEsXiyKGqW21RSDz-15">
          <mxGeometry relative="1" as="geometry" />
        </mxCell>
        <mxCell id="HbkSaEsXiyKGqW21RSDz-5" value="about us page" style="rounded=0;whiteSpace=wrap;html=1;" vertex="1" parent="1">
          <mxGeometry x="414" y="280" width="120" height="60" as="geometry" />
        </mxCell>
        <mxCell id="HbkSaEsXiyKGqW21RSDz-19" style="edgeStyle=orthogonalEdgeStyle;rounded=0;orthogonalLoop=1;jettySize=auto;html=1;" edge="1" parent="1" source="HbkSaEsXiyKGqW21RSDz-6" target="HbkSaEsXiyKGqW21RSDz-15">
          <mxGeometry relative="1" as="geometry" />
        </mxCell>
        <mxCell id="HbkSaEsXiyKGqW21RSDz-6" value="accesory page" style="rounded=0;whiteSpace=wrap;html=1;" vertex="1" parent="1">
          <mxGeometry x="280" y="350" width="120" height="60" as="geometry" />
        </mxCell>
        <mxCell id="HbkSaEsXiyKGqW21RSDz-15" value="" style="verticalLabelPosition=bottom;verticalAlign=top;html=1;shape=mxgraph.basic.8_point_star" vertex="1" parent="1">
          <mxGeometry x="290" y="210" width="100" height="100" as="geometry" />
        </mxCell>
      </root>
    </mxGraphModel>
  </diagram>
</mxfile>
